<svg width="650" height="553" viewBox="0 0 650 553" fill="none" xmlns="http://www.w3.org/2000/svg">
<mask id="path-1-inside-1_1882_806" fill="white">
<path d="M177.376 78.25C177.376 111.387 150.513 138.25 117.376 138.25H60C26.8629 138.25 0 165.113 0 198.25V354.75C0 387.887 26.8629 414.75 60 414.75H102.5C135.637 414.75 162.5 441.613 162.5 474.75V493C162.5 526.137 189.363 553 222.5 553H427.5C460.637 553 487.5 526.137 487.5 493V474.75C487.5 441.613 514.363 414.75 547.5 414.75H590C623.137 414.75 650 387.887 650 354.75V336.5C650 303.363 623.137 276.5 590 276.5H538C504.863 276.5 478 249.637 478 216.5V186C478 159.49 499.49 138 526 138C552.51 138 574 116.51 574 90V60C574 26.8629 547.137 0 514 0H237.376C204.239 0 177.376 26.8629 177.376 60V78.25Z"/>
</mask>
<path d="M117.376 138.25V140.25H60V138.25V136.25H117.376V138.25ZM0 198.25H2V354.75H0H-2V198.25H0ZM60 414.75V412.75H102.5V414.75V416.75H60V414.75ZM162.5 474.75H164.5V493H162.5H160.5V474.75H162.5ZM222.5 553V551H427.5V553V555H222.5V553ZM487.5 493H485.5V474.75H487.5H489.5V493H487.5ZM547.5 414.75V412.75H590V414.75V416.75H547.5V414.75ZM650 354.75H648V336.5H650H652V354.75H650ZM590 276.5V278.5H538V276.5V274.5H590V276.5ZM478 216.5H476V186H478H480V216.5H478ZM574 90H572V60H574H576V90H574ZM514 0V2H237.376V0V-2H514V0ZM177.376 60H179.376V78.25H177.376H175.376V60H177.376ZM237.376 0V2C205.343 2 179.376 27.9675 179.376 60H177.376H175.376C175.376 25.7583 203.134 -2 237.376 -2V0ZM574 60H572C572 27.9675 546.033 2 514 2V0V-2C548.242 -2 576 25.7583 576 60H574ZM526 138V136C551.405 136 572 115.405 572 90H574H576C576 117.614 553.614 140 526 140V138ZM478 186H476C476 158.386 498.386 136 526 136V138V140C500.595 140 480 160.595 480 186H478ZM538 276.5V278.5C503.758 278.5 476 250.742 476 216.5H478H480C480 248.533 505.967 274.5 538 274.5V276.5ZM650 336.5H648C648 304.467 622.033 278.5 590 278.5V276.5V274.5C624.242 274.5 652 302.258 652 336.5H650ZM590 414.75V412.75C622.033 412.75 648 386.783 648 354.75H650H652C652 388.992 624.242 416.75 590 416.75V414.75ZM487.5 474.75H485.5C485.5 440.508 513.258 412.75 547.5 412.75V414.75V416.75C515.467 416.75 489.5 442.717 489.5 474.75H487.5ZM427.5 553V551C459.533 551 485.5 525.033 485.5 493H487.5H489.5C489.5 527.242 461.742 555 427.5 555V553ZM162.5 493H164.5C164.5 525.033 190.467 551 222.5 551V553V555C188.258 555 160.5 527.242 160.5 493H162.5ZM102.5 414.75V412.75C136.742 412.75 164.5 440.508 164.5 474.75H162.5H160.5C160.5 442.717 134.533 416.75 102.5 416.75V414.75ZM0 354.75H2C2 386.783 27.9675 412.75 60 412.75V414.75V416.75C25.7584 416.75 -2 388.992 -2 354.75H0ZM60 138.25V140.25C27.9675 140.25 2 166.217 2 198.25H0H-2C-2 164.008 25.7584 136.25 60 136.25V138.25ZM117.376 138.25V136.25C149.408 136.25 175.376 110.283 175.376 78.25H177.376H179.376C179.376 112.492 151.618 140.25 117.376 140.25V138.25Z" fill="black" mask="url(#path-1-inside-1_1882_806)"/>
</svg>
