<svg width="58" height="42" viewBox="0 0 58 42" fill="none" xmlns="http://www.w3.org/2000/svg">
<path d="M55.6598 21C55.6598 10.7735 47.8467 2.65263 38.209 2.65263L19.791 2.48321C10.1532 2.48321 2.34025 10.7735 2.34025 21C2.34029 31.2264 10.1533 39.5168 19.791 39.5168L38.2464 39.3473C47.8841 39.3473 55.6597 31.2264 55.6598 21ZM58 21C58 32.5979 49.1392 42 38.209 42H19.791C8.86079 42 4.04071e-05 32.5979 0 21C0 9.40206 8.86077 0 19.791 0H38.209C49.1392 0 58 9.40206 58 21Z" fill="#101010"/>
<path d="M37.6229 21C37.6229 10.9333 29.9331 2.74279 20.3549 2.48927L19.8976 2.48321H2.37715V39.5168H19.8976C29.6871 39.5167 37.6228 31.2264 37.6229 21ZM40 21C40 32.5978 31 41.9999 19.8976 42H0V0H19.8976L20.4164 0.00666878C31.2791 0.294261 40 9.58335 40 21Z" fill="#101010"/>
<path d="M19 2V41H17V2H19Z" fill="#101010"/>
<path d="M38 0V2H19V0H38Z" fill="#101010"/>
<path d="M38 20V22H19V20H38Z" fill="#101010"/>
<path d="M38 40V42H19V40H38Z" fill="#101010"/>
</svg>
