<svg width="390" height="279" viewBox="0 0 390 279" fill="none" xmlns="http://www.w3.org/2000/svg">
<mask id="path-1-inside-1_2006_828" fill="white">
<path d="M422 76.8096C422 65.7639 413.046 56.8096 402 56.8096H347.485C336.44 56.8096 327.485 47.8553 327.485 36.8096V20C327.485 8.9543 318.531 0 307.485 0H9C-2.0457 0 -11 8.95431 -11 20V153.039C-11 164.085 -2.04569 173.039 9 173.039H116.024C127.07 173.039 136.024 181.993 136.024 193.039V258.254C136.024 269.3 144.979 278.254 156.024 278.254H402C413.046 278.254 422 269.3 422 258.254V76.8096Z"/>
</mask>
<path d="M422 76.8096C422 65.7639 413.046 56.8096 402 56.8096H347.485C336.44 56.8096 327.485 47.8553 327.485 36.8096V20C327.485 8.9543 318.531 0 307.485 0H9C-2.0457 0 -11 8.95431 -11 20V153.039C-11 164.085 -2.04569 173.039 9 173.039H116.024C127.07 173.039 136.024 181.993 136.024 193.039V258.254C136.024 269.3 144.979 278.254 156.024 278.254H402C413.046 278.254 422 269.3 422 258.254V76.8096Z" fill="url(#paint0_linear_2006_828)"/>
<path d="M402 56.8096V57.3096H347.485V56.8096V56.3096H402V56.8096ZM327.485 36.8096H326.985V20H327.485H327.985V36.8096H327.485ZM307.485 0V0.5H9V0V-0.5H307.485V0ZM-11 20H-10.5V153.039H-11H-11.5V20H-11ZM9 173.039V172.539H116.024V173.039V173.539H9V173.039ZM136.024 193.039H136.524V258.254H136.024H135.524V193.039H136.024ZM156.024 278.254V277.754H402V278.254V278.754H156.024V278.254ZM422 258.254H421.5V76.8096H422H422.5V258.254H422ZM402 278.254V277.754C412.77 277.754 421.5 269.023 421.5 258.254H422H422.5C422.5 269.576 413.322 278.754 402 278.754V278.254ZM136.024 258.254H136.524C136.524 269.023 145.255 277.754 156.024 277.754V278.254V278.754C144.703 278.754 135.524 269.576 135.524 258.254H136.024ZM116.024 173.039V172.539C127.346 172.539 136.524 181.717 136.524 193.039H136.024H135.524C135.524 182.27 126.794 173.539 116.024 173.539V173.039ZM-11 153.039H-10.5C-10.5 163.809 -1.76955 172.539 9 172.539V173.039V173.539C-2.32184 173.539 -11.5 164.361 -11.5 153.039H-11ZM9 0V0.5C-1.76956 0.5 -10.5 9.23044 -10.5 20H-11H-11.5C-11.5 8.67816 -2.32184 -0.5 9 -0.5V0ZM327.485 20H326.985C326.985 9.23044 318.255 0.5 307.485 0.5V0V-0.5C318.807 -0.5 327.985 8.67816 327.985 20H327.485ZM347.485 56.8096V57.3096C336.164 57.3096 326.985 48.1314 326.985 36.8096H327.485H327.985C327.985 47.5791 336.716 56.3096 347.485 56.3096V56.8096ZM402 56.8096V56.3096C413.322 56.3096 422.5 65.4877 422.5 76.8096H422H421.5C421.5 66.04 412.77 57.3096 402 57.3096V56.8096Z" fill="url(#paint1_linear_2006_828)" mask="url(#path-1-inside-1_2006_828)"/>
<defs>
<linearGradient id="paint0_linear_2006_828" x1="198.735" y1="352" x2="226.435" y2="-70.4261" gradientUnits="userSpaceOnUse">
<stop offset="0.415664" stop-color="white"/>
<stop offset="0.987444" stop-color="#A8C8FF" stop-opacity="0.8"/>
</linearGradient>
<linearGradient id="paint1_linear_2006_828" x1="151.991" y1="-9.38546e-06" x2="187.512" y2="378.19" gradientUnits="userSpaceOnUse">
<stop/>
<stop offset="0.625898" stop-color="white"/>
</linearGradient>
</defs>
</svg>
