<svg width="390" height="420" viewBox="0 0 390 420" fill="none" xmlns="http://www.w3.org/2000/svg">
<mask id="path-1-inside-1_2006_828" fill="white">
<path d="M702.998 105.75C702.998 94.7043 694.044 85.75 682.998 85.75H511.051C500.005 85.75 491.051 76.7957 491.051 65.75V20C491.051 8.9543 482.096 0 471.051 0H-248C-259.046 0 -268 8.95431 -268 20V241.188C-268 252.234 -259.046 261.188 -248 261.188H41.7002C52.7459 261.188 61.7002 270.143 61.7002 281.188V400.001C61.7002 411.047 70.6545 420.001 81.7002 420.001H682.998C694.044 420.001 702.998 411.047 702.998 400.001V105.75Z"/>
</mask>
<path d="M702.998 105.75C702.998 94.7043 694.044 85.75 682.998 85.75H511.051C500.005 85.75 491.051 76.7957 491.051 65.75V20C491.051 8.9543 482.096 0 471.051 0H-248C-259.046 0 -268 8.95431 -268 20V241.188C-268 252.234 -259.046 261.188 -248 261.188H41.7002C52.7459 261.188 61.7002 270.143 61.7002 281.188V400.001C61.7002 411.047 70.6545 420.001 81.7002 420.001H682.998C694.044 420.001 702.998 411.047 702.998 400.001V105.75Z" fill="url(#paint0_linear_2006_828)"/>
<path d="M682.998 85.75V86.25H511.051V85.75V85.25H682.998V85.75ZM491.051 65.75H490.551V20H491.051H491.551V65.75H491.051ZM471.051 0V0.5H-248V0V-0.5H471.051V0ZM-268 20H-267.5V241.188H-268H-268.5V20H-268ZM-248 261.188V260.688H41.7002V261.188V261.688H-248V261.188ZM61.7002 281.188H62.2002V400.001H61.7002H61.2002V281.188H61.7002ZM81.7002 420.001V419.501H682.998V420.001V420.501H81.7002V420.001ZM702.998 400.001H702.498V105.75H702.998H703.498V400.001H702.998ZM682.998 420.001V419.501C693.768 419.501 702.498 410.771 702.498 400.001H702.998H703.498C703.498 411.323 694.32 420.501 682.998 420.501V420.001ZM61.7002 400.001H62.2002C62.2002 410.771 70.9306 419.501 81.7002 419.501V420.001V420.501C70.3784 420.501 61.2002 411.323 61.2002 400.001H61.7002ZM41.7002 261.188V260.688C53.022 260.688 62.2002 269.867 62.2002 281.188H61.7002H61.2002C61.2002 270.419 52.4697 261.688 41.7002 261.688V261.188ZM-268 241.188H-267.5C-267.5 251.958 -258.77 260.688 -248 260.688V261.188V261.688C-259.322 261.688 -268.5 252.51 -268.5 241.188H-268ZM-248 0V0.5C-258.77 0.5 -267.5 9.23044 -267.5 20H-268H-268.5C-268.5 8.67816 -259.322 -0.5 -248 -0.5V0ZM491.051 20H490.551C490.551 9.23044 481.82 0.5 471.051 0.5V0V-0.5C482.373 -0.5 491.551 8.67816 491.551 20H491.051ZM511.051 85.75V86.25C499.729 86.25 490.551 77.0718 490.551 65.75H491.051H491.551C491.551 76.5196 500.281 85.25 511.051 85.25V85.75ZM682.998 85.75V85.25C694.32 85.25 703.498 94.4282 703.498 105.75H702.998H702.498C702.498 94.9804 693.768 86.25 682.998 86.25V85.75Z" fill="url(#paint1_linear_2006_828)" mask="url(#path-1-inside-1_2006_828)"/>
<defs>
<linearGradient id="paint0_linear_2006_828" x1="202.329" y1="531.315" x2="230.538" y2="-107.799" gradientUnits="userSpaceOnUse">
<stop offset="0.415664" stop-color="white"/>
<stop offset="0.987444" stop-color="#A8C8FF" stop-opacity="0.8"/>
</linearGradient>
<linearGradient id="paint1_linear_2006_828" x1="97.5046" y1="-1.41666e-05" x2="133.767" y2="573.589" gradientUnits="userSpaceOnUse">
<stop/>
<stop offset="0.625898" stop-color="white"/>
</linearGradient>
</defs>
</svg>
