<svg width="784" height="383" viewBox="0 0 784 383" fill="none" xmlns="http://www.w3.org/2000/svg">
<g opacity="0.6">
<mask id="path-1-inside-1_1473_514" fill="white">
<path d="M168 14.5C168 22.5081 174.492 29 182.5 29H209C216.732 29 223 35.268 223 43C223 50.732 229.268 57 237 57H550C558.837 57 566 49.8366 566 41C566 32.1634 573.163 25 582 25H718C726.837 25 734 32.1634 734 41C734 49.8366 741.163 57 750 57H759C772.807 57 784 68.1929 784 82V331.5C784 331.776 783.776 332 783.5 332C783.224 332 783 332.224 783 332.5V357.5C783 371.583 771.583 383 757.5 383H628.5C621.596 383 616 377.404 616 370.5C616 363.596 610.404 358 603.5 358H498C490.82 358 485 352.18 485 345C485 337.82 479.18 332 472 332H26.1333C11.7003 332 0 320.3 0 305.867V26.1333C0 11.7003 11.7003 0 26.1333 0H153.5C161.508 0 168 6.49187 168 14.5Z"/>
</mask>
<path d="M168 14.5C168 22.5081 174.492 29 182.5 29H209C216.732 29 223 35.268 223 43C223 50.732 229.268 57 237 57H550C558.837 57 566 49.8366 566 41C566 32.1634 573.163 25 582 25H718C726.837 25 734 32.1634 734 41C734 49.8366 741.163 57 750 57H759C772.807 57 784 68.1929 784 82V331.5C784 331.776 783.776 332 783.5 332C783.224 332 783 332.224 783 332.5V357.5C783 371.583 771.583 383 757.5 383H628.5C621.596 383 616 377.404 616 370.5C616 363.596 610.404 358 603.5 358H498C490.82 358 485 352.18 485 345C485 337.82 479.18 332 472 332H26.1333C11.7003 332 0 320.3 0 305.867V26.1333C0 11.7003 11.7003 0 26.1333 0H153.5C161.508 0 168 6.49187 168 14.5Z" fill="url(#paint0_linear_1473_514)"/>
<path d="M182.5 29V30.3067H209V29V27.6933H182.5V29ZM237 57V58.3067H550V57V55.6933H237V57ZM582 25V26.3067H718V25V23.6933H582V25ZM750 57V58.3067H759V57V55.6933H750V57ZM784 82H782.693V331.5H784H785.307V82H784ZM783 332.5H781.693V357.5H783H784.307V332.5H783ZM757.5 383V381.693H628.5V383V384.307H757.5V383ZM603.5 358V356.693H498V358V359.307H603.5V358ZM472 332V330.693H26.1333V332V333.307H472V332ZM0 305.867H1.30667V26.1333H0H-1.30667V305.867H0ZM26.1333 0V1.30667H153.5V0V-1.30667H26.1333V0ZM153.5 0V1.30667C160.786 1.30667 166.693 7.21352 166.693 14.5H168H169.307C169.307 5.77022 162.23 -1.30667 153.5 -1.30667V0ZM0 26.1333H1.30667C1.30667 12.4219 12.4219 1.30667 26.1333 1.30667V0V-1.30667C10.9786 -1.30667 -1.30667 10.9786 -1.30667 26.1333H0ZM26.1333 332V330.693C12.4219 330.693 1.30667 319.578 1.30667 305.867H0H-1.30667C-1.30667 321.021 10.9786 333.307 26.1333 333.307V332ZM485 345H486.307C486.307 337.099 479.901 330.693 472 330.693V332V333.307C478.458 333.307 483.693 338.542 483.693 345H485ZM498 358V356.693C491.542 356.693 486.307 351.458 486.307 345H485H483.693C483.693 352.901 490.099 359.307 498 359.307V358ZM616 370.5H617.307C617.307 362.875 611.125 356.693 603.5 356.693V358V359.307C609.682 359.307 614.693 364.318 614.693 370.5H616ZM628.5 383V381.693C622.318 381.693 617.307 376.682 617.307 370.5H616H614.693C614.693 378.125 620.875 384.307 628.5 384.307V383ZM783 357.5H781.693C781.693 370.862 770.862 381.693 757.5 381.693V383V384.307C772.305 384.307 784.307 372.305 784.307 357.5H783ZM783.5 332V330.693C782.502 330.693 781.693 331.502 781.693 332.5H783H784.307C784.307 332.945 783.945 333.307 783.5 333.307V332ZM784 331.5H782.693C782.693 331.054 783.055 330.693 783.5 330.693V332V333.307C784.498 333.307 785.307 332.498 785.307 331.5H784ZM759 57V58.3067C772.085 58.3067 782.693 68.9145 782.693 82H784H785.307C785.307 67.4712 773.529 55.6933 759 55.6933V57ZM734 41H732.693C732.693 50.5582 740.442 58.3067 750 58.3067V57V55.6933C741.885 55.6933 735.307 49.1149 735.307 41H734ZM718 25V26.3067C726.115 26.3067 732.693 32.8851 732.693 41H734H735.307C735.307 31.4418 727.558 23.6933 718 23.6933V25ZM566 41H567.307C567.307 32.8851 573.885 26.3067 582 26.3067V25V23.6933C572.442 23.6933 564.693 31.4418 564.693 41H566ZM550 57V58.3067C559.558 58.3067 567.307 50.5582 567.307 41H566H564.693C564.693 49.1149 558.115 55.6933 550 55.6933V57ZM223 43H221.693C221.693 51.4536 228.546 58.3067 237 58.3067V57V55.6933C229.99 55.6933 224.307 50.0103 224.307 43H223ZM209 29V30.3067C216.01 30.3067 221.693 35.9897 221.693 43H223H224.307C224.307 34.5464 217.454 27.6933 209 27.6933V29ZM182.5 29V27.6933C175.214 27.6933 169.307 21.7865 169.307 14.5H168H166.693C166.693 23.2298 173.77 30.3067 182.5 30.3067V29Z" fill="url(#paint1_linear_1473_514)" mask="url(#path-1-inside-1_1473_514)"/>
</g>
<defs>
<linearGradient id="paint0_linear_1473_514" x1="392.218" y1="0" x2="392.218" y2="383.009" gradientUnits="userSpaceOnUse">
<stop stop-color="#A8C8FF"/>
<stop offset="0.905861" stop-color="white"/>
</linearGradient>
<linearGradient id="paint1_linear_1473_514" x1="392.218" y1="0" x2="392.218" y2="383.009" gradientUnits="userSpaceOnUse">
<stop stop-color="#101010"/>
<stop offset="0.840914" stop-color="white"/>
</linearGradient>
</defs>
</svg>
