<svg width="1419" height="620" viewBox="0 0 1419 620" fill="none" xmlns="http://www.w3.org/2000/svg">
<mask id="path-1-inside-1_1656_88" fill="white">
<path d="M926.056 0C935.414 0 943.001 7.58668 943.001 16.9453C943.001 26.3039 935.414 33.8906 926.056 33.8906H738.002C711.492 33.8906 690.002 55.381 690.002 81.8906V194.289C690.002 208.648 678.361 220.289 664.001 220.289C649.642 220.289 638.001 231.93 638.001 246.29V521.164C638.001 547.674 659.491 569.164 686.001 569.164H849.53C854.21 569.164 858.003 572.957 858.003 577.637C858.003 582.316 861.796 586.109 866.476 586.109H1042.48C1048.29 586.109 1053 581.398 1053 575.586C1053 569.774 1057.71 565.062 1063.53 565.062H1287C1313.51 565.062 1335 543.572 1335 517.062V473.037C1335 462.268 1326.27 453.537 1315.5 453.537C1304.73 453.537 1296 444.807 1296 434.037V166.027C1296 155.258 1304.73 146.527 1315.5 146.527C1326.27 146.527 1335 137.797 1335 127.027V113.698C1335 102.653 1343.96 93.6982 1355 93.6982C1366.05 93.6982 1375 102.653 1375 113.698V124.527C1375 136.678 1384.85 146.527 1397 146.527C1409.15 146.527 1419 156.377 1419 168.527V431.537C1419 443.687 1409.15 453.537 1397 453.537C1384.85 453.537 1375 463.387 1375 475.537V553.062C1375 579.572 1353.51 601.062 1327 601.062H1185.47C1180.24 601.062 1176 605.302 1176 610.531C1176 615.761 1171.76 620 1166.53 620H802.475C797.795 620 794.002 616.207 794.002 611.527C794.002 606.848 790.209 603.055 785.529 603.055H110C83.4903 603.055 62 581.564 62 555.055V484.537C62 467.416 48.1208 453.537 31 453.537C13.8792 453.537 0 439.658 0 422.537V177.527C0 160.407 13.8792 146.527 31 146.527C48.1208 146.527 62 132.648 62 115.527V48C62 21.4903 83.4903 0 110 0H926.056Z"/>
</mask>
<path d="M926.056 0C935.414 0 943.001 7.58668 943.001 16.9453C943.001 26.3039 935.414 33.8906 926.056 33.8906H738.002C711.492 33.8906 690.002 55.381 690.002 81.8906V194.289C690.002 208.648 678.361 220.289 664.001 220.289C649.642 220.289 638.001 231.93 638.001 246.29V521.164C638.001 547.674 659.491 569.164 686.001 569.164H849.53C854.21 569.164 858.003 572.957 858.003 577.637C858.003 582.316 861.796 586.109 866.476 586.109H1042.48C1048.29 586.109 1053 581.398 1053 575.586C1053 569.774 1057.71 565.062 1063.53 565.062H1287C1313.51 565.062 1335 543.572 1335 517.062V473.037C1335 462.268 1326.27 453.537 1315.5 453.537C1304.73 453.537 1296 444.807 1296 434.037V166.027C1296 155.258 1304.73 146.527 1315.5 146.527C1326.27 146.527 1335 137.797 1335 127.027V113.698C1335 102.653 1343.96 93.6982 1355 93.6982C1366.05 93.6982 1375 102.653 1375 113.698V124.527C1375 136.678 1384.85 146.527 1397 146.527C1409.15 146.527 1419 156.377 1419 168.527V431.537C1419 443.687 1409.15 453.537 1397 453.537C1384.85 453.537 1375 463.387 1375 475.537V553.062C1375 579.572 1353.51 601.062 1327 601.062H1185.47C1180.24 601.062 1176 605.302 1176 610.531C1176 615.761 1171.76 620 1166.53 620H802.475C797.795 620 794.002 616.207 794.002 611.527C794.002 606.848 790.209 603.055 785.529 603.055H110C83.4903 603.055 62 581.564 62 555.055V484.537C62 467.416 48.1208 453.537 31 453.537C13.8792 453.537 0 439.658 0 422.537V177.527C0 160.407 13.8792 146.527 31 146.527C48.1208 146.527 62 132.648 62 115.527V48C62 21.4903 83.4903 0 110 0H926.056Z" fill="white"/>
<path d="M926.056 33.8906V31.8906H738.002V33.8906V35.8906H926.056V33.8906ZM690.002 81.8906H688.002V194.289H690.002H692.002V81.8906H690.002ZM638.001 246.29H636.001V521.164H638.001H640.001V246.29H638.001ZM686.001 569.164V571.164H849.53V569.164V567.164H686.001V569.164ZM866.476 586.109V588.109H1042.48V586.109V584.109H866.476V586.109ZM1063.53 565.062V567.062H1287V565.062V563.062H1063.53V565.062ZM1335 517.062H1337V473.037H1335H1333V517.062H1335ZM1296 434.037H1298V166.027H1296H1294V434.037H1296ZM1335 127.027H1337V113.698H1335H1333V127.027H1335ZM1375 113.698H1373V124.527H1375H1377V113.698H1375ZM1419 168.527H1417V431.537H1419H1421V168.527H1419ZM1375 475.537H1373V553.062H1375H1377V475.537H1375ZM1327 601.062V599.062H1185.47V601.062V603.062H1327V601.062ZM1166.53 620V618H802.475V620V622H1166.53V620ZM785.529 603.055V601.055H110V603.055V605.055H785.529V603.055ZM62 555.055H64V484.537H62H60V555.055H62ZM0 422.537H2V177.527H0H-2V422.537H0ZM62 115.527H64V48H62H60V115.527H62ZM110 0V2H926.056V0V-2H110V0ZM62 48H64C64 22.5949 84.5949 2 110 2V0V-2C82.3858 -2 60 20.3858 60 48H62ZM31 146.527V148.527C49.2254 148.527 64 133.753 64 115.527H62H60C60 131.544 47.0163 144.527 31 144.527V146.527ZM0 177.527H2C2 161.511 14.9837 148.527 31 148.527V146.527V144.527C12.7746 144.527 -2 159.302 -2 177.527H0ZM31 453.537V451.537C14.9837 451.537 2 438.553 2 422.537H0H-2C-2 440.763 12.7746 455.537 31 455.537V453.537ZM62 484.537H64C64 466.312 49.2254 451.537 31 451.537V453.537V455.537C47.0163 455.537 60 468.521 60 484.537H62ZM110 603.055V601.055C84.5949 601.055 64 580.46 64 555.055H62H60C60 582.669 82.3857 605.055 110 605.055V603.055ZM794.002 611.527H796.002C796.002 605.743 791.313 601.055 785.529 601.055V603.055V605.055C789.104 605.055 792.002 607.953 792.002 611.527H794.002ZM802.475 620V618C798.9 618 796.002 615.102 796.002 611.527H794.002H792.002C792.002 617.311 796.691 622 802.475 622V620ZM1176 610.531H1174C1174 614.656 1170.66 618 1166.53 618V620V622C1172.87 622 1178 616.865 1178 610.531H1176ZM1185.47 601.062V599.062C1179.14 599.062 1174 604.197 1174 610.531H1176H1178C1178 606.406 1181.35 603.062 1185.47 603.062V601.062ZM1375 553.062H1373C1373 578.468 1352.41 599.062 1327 599.062V601.062V603.062C1354.62 603.062 1377 580.677 1377 553.062H1375ZM1397 453.537V451.537C1383.75 451.537 1373 462.282 1373 475.537H1375H1377C1377 464.491 1385.96 455.537 1397 455.537V453.537ZM1419 431.537H1417C1417 442.583 1408.05 451.537 1397 451.537V453.537V455.537C1410.26 455.537 1421 444.792 1421 431.537H1419ZM1397 146.527V148.527C1408.05 148.527 1417 157.482 1417 168.527H1419H1421C1421 155.273 1410.26 144.527 1397 144.527V146.527ZM1375 124.527H1373C1373 137.782 1383.75 148.527 1397 148.527V146.527V144.527C1385.96 144.527 1377 135.573 1377 124.527H1375ZM1355 93.6982V95.6982C1364.94 95.6982 1373 103.757 1373 113.698H1375H1377C1377 101.548 1367.15 91.6982 1355 91.6982V93.6982ZM1335 113.698H1337C1337 103.757 1345.06 95.6982 1355 95.6982V93.6982V91.6982C1342.85 91.6982 1333 101.548 1333 113.698H1335ZM1315.5 146.527V148.527C1327.38 148.527 1337 138.901 1337 127.027H1335H1333C1333 136.692 1325.17 144.527 1315.5 144.527V146.527ZM1296 166.027H1298C1298 156.362 1305.84 148.527 1315.5 148.527V146.527V144.527C1303.63 144.527 1294 154.153 1294 166.027H1296ZM1315.5 453.537V451.537C1305.84 451.537 1298 443.702 1298 434.037H1296H1294C1294 445.911 1303.63 455.537 1315.5 455.537V453.537ZM1335 473.037H1337C1337 461.163 1327.38 451.537 1315.5 451.537V453.537V455.537C1325.17 455.537 1333 463.372 1333 473.037H1335ZM1287 565.062V567.062C1314.62 567.062 1337 544.677 1337 517.062H1335H1333C1333 542.468 1312.41 563.062 1287 563.062V565.062ZM1053 575.586H1055C1055 570.879 1058.82 567.062 1063.53 567.062V565.062V563.062C1056.61 563.062 1051 568.669 1051 575.586H1053ZM1042.48 586.109V588.109C1049.4 588.109 1055 582.502 1055 575.586H1053H1051C1051 580.293 1047.19 584.109 1042.48 584.109V586.109ZM858.003 577.637H856.003C856.003 583.421 860.692 588.109 866.476 588.109V586.109V584.109C862.901 584.109 860.003 581.211 860.003 577.637H858.003ZM849.53 569.164V571.164C853.105 571.164 856.003 574.062 856.003 577.637H858.003H860.003C860.003 571.853 855.314 567.164 849.53 567.164V569.164ZM638.001 521.164H636.001C636.001 548.778 658.387 571.164 686.001 571.164V569.164V567.164C660.596 567.164 640.001 546.569 640.001 521.164H638.001ZM664.001 220.289V218.289C648.537 218.289 636.001 230.825 636.001 246.29H638.001H640.001C640.001 233.034 650.746 222.289 664.001 222.289V220.289ZM690.002 194.289H688.002C688.002 207.544 677.257 218.289 664.001 218.289V220.289V222.289C679.466 222.289 692.002 209.753 692.002 194.289H690.002ZM738.002 33.8906V31.8906C710.388 31.8906 688.002 54.2764 688.002 81.8906H690.002H692.002C692.002 56.4855 712.597 35.8906 738.002 35.8906V33.8906ZM943.001 16.9453H941.001C941.001 25.1994 934.31 31.8906 926.056 31.8906V33.8906V35.8906C936.519 35.8906 945.001 27.4085 945.001 16.9453H943.001ZM943.001 16.9453H945.001C945.001 6.4821 936.519 -2 926.056 -2V0V2C934.31 2 941.001 8.69125 941.001 16.9453H943.001Z" fill="black" mask="url(#path-1-inside-1_1656_88)"/>
</svg>
